<?xml version="1.0" encoding="utf-8"?>
<svg viewBox="36.275 31.574 370.625 94.4322" width="370.625" height="94.432" xmlns="http://www.w3.org/2000/svg" xmlns:xlink="http://www.w3.org/1999/xlink" xmlns:bx="https://boxy-svg.com">
  <defs>
    <linearGradient id="color-1-0" gradientUnits="userSpaceOnUse" x1="228.665" y1="27.095" x2="228.665" y2="121.527" gradientTransform="matrix(0.999643, -0.026698, 0.019924, 0.745969, -5.654038, 33.929948)" xlink:href="#color-1"/>
    <linearGradient id="color-1" bx:pinned="true">
      <stop style="stop-color: #ef32d9;" offset="0"/>
      <stop style="stop-color: #89fffd;" offset="1"/>
    </linearGradient>
  </defs>
  <path d="M 42.412 56.486 C 42.553 64.692 46.03 71.232 52.609 75.76 C 54.193 76.829 55.889 77.782 57.636 78.588 C 59.357 79.379 61.055 80.148 62.677 80.87 C 64.283 81.521 65.874 82.249 67.48 83.066 C 69.062 83.864 70.51 84.811 71.834 85.902 C 72.507 86.399 73.084 86.923 73.634 87.545 C 74.167 88.137 74.553 88.732 74.902 89.514 C 75.569 91.01 75.792 92.239 75.625 93.554 C 75.497 94.915 75.021 96.211 74.166 97.611 C 73.44 98.982 72.555 100.128 71.409 101.183 C 70.233 102.284 69.007 103.293 67.673 104.259 C 65.9 105.416 64.089 106.36 62.147 107.134 C 60.233 107.904 58.222 108.307 56.08 108.366 C 54.03 108.569 52.225 108.275 50.45 107.456 C 48.969 106.639 48.125 105.692 47.683 104.306 C 47.171 102.992 47.257 101.825 47.913 100.416 C 48.189 99.657 48.538 99.078 49.065 98.502 C 49.63 97.862 50.209 97.274 50.838 96.702 C 51.365 96.205 51.711 96.036 52.102 96 C 52.466 95.966 52.642 96.005 52.954 96.37 L 53.004 96.428 L 53.064 96.465 C 53.429 96.696 53.464 96.796 53.517 97.092 C 53.575 97.411 53.526 97.723 53.275 98.297 C 53.241 98.417 53.193 98.511 53.059 98.731 C 52.88 99.019 52.677 99.395 52.534 99.685 C 52.415 99.974 52.302 100.322 52.262 100.58 C 52.208 100.914 52.326 101.489 52.463 101.842 C 52.828 102.223 53.471 102.532 54.081 102.544 C 56.158 102.602 58.2 102.271 60.022 101.595 C 61.478 100.989 62.884 100.269 64.179 99.465 C 65.494 98.635 66.773 97.53 67.859 96.298 C 68.832 95.075 69.489 93.752 69.439 92.795 C 69.386 91.771 68.397 90.626 67.09 89.757 C 65.947 88.874 64.706 88.136 63.398 87.554 C 62.137 86.996 60.884 86.417 59.658 85.828 C 57.779 84.974 55.899 84.118 54.02 83.261 C 52.174 82.424 50.451 81.437 48.797 80.27 C 46.635 78.79 44.74 77.137 43.029 75.235 C 41.327 73.359 39.961 71.28 38.838 68.855 C 37.447 65.804 36.637 62.626 36.329 59.063 C 36.203 56.57 36.297 54.146 36.616 51.642 C 36.921 49.173 37.571 46.808 38.58 44.456 C 39.45 42.166 40.565 40.159 42.01 38.288 C 43.434 36.42 45.17 34.931 47.303 33.732 C 49.665 32.261 52.221 31.574 55.174 31.574 C 58.057 31.574 60.791 32.893 63.592 35.707 C 66.002 37.884 67.887 40.259 69.357 42.975 C 70.847 45.703 71.972 48.566 72.793 51.714 C 72.971 52.428 73.062 53.103 73.089 53.887 C 73.122 54.701 73.107 55.505 73.044 56.387 C 73.007 56.784 72.928 56.971 72.719 57.322 C 72.561 57.653 72.384 57.804 71.995 57.988 C 71.205 58.274 70.64 58.109 69.837 57.288 C 69.619 57.073 69.473 56.886 69.313 56.61 C 69.129 56.296 68.941 55.955 68.82 55.711 C 68.323 54.89 67.908 54.077 67.538 53.197 C 67.137 52.252 66.708 51.349 66.254 50.485 C 65.594 48.943 64.877 47.46 64.085 45.99 C 63.276 44.492 62.295 43.037 61.229 41.745 C 60.768 41.21 60.304 40.691 59.845 40.192 C 59.337 39.646 58.746 39.175 58.127 38.81 C 56.11 37.256 53.659 37.04 51.193 38.198 C 50.389 38.675 49.585 39.24 48.844 39.854 C 48.08 40.498 47.391 41.272 46.832 42.104 C 45.61 43.63 44.654 45.362 43.996 47.203 C 43.358 49.023 42.919 51.001 42.713 52.987 C 42.65 53.56 42.575 54.088 42.481 54.623 C 42.372 55.281 42.355 55.92 42.412 56.486 Z M 102.172 101.011 C 101.628 101.422 101.123 102.042 100.819 102.662 C 100.635 103.071 100.466 103.324 100.203 103.578 L 100.138 103.641 L 100.074 103.738 C 99.452 104.688 98.8 105.52 98.053 106.308 C 97.349 107.066 96.526 107.619 95.498 108.04 C 93.828 108.859 92.292 108.9 90.594 108.174 C 88.894 107.518 87.877 106.47 87.283 104.758 C 85.898 101.239 85.526 98.095 86.135 94.95 C 86.7 91.752 88.051 88.839 90.32 85.924 C 91.53 84.365 92.883 83.339 94.569 82.703 C 96.238 82.036 97.992 81.937 100.037 82.389 L 100.124 82.408 L 100.187 82.404 C 100.261 82.4 100.259 82.399 100.297 82.417 C 100.457 82.465 100.683 82.5 100.864 82.504 L 101.387 82.516 L 101.628 81.969 C 101.948 81.241 102.05 80.253 101.901 79.528 C 101.783 79.152 101.7 78.764 101.644 78.357 C 101.38 76.88 101.058 75.438 100.694 74.092 C 100.325 72.734 99.844 71.334 99.312 70.046 C 98.468 68.224 97.456 67.028 96.589 66.73 C 95.724 66.634 94.407 67.25 92.964 68.489 C 90.772 70.389 88.842 72.694 87.243 75.312 C 86.67 76.108 86.254 77.103 86.254 78.014 C 86.254 78.545 86.206 78.719 85.986 79.016 C 85.751 79.334 85.489 79.521 84.913 79.67 C 84.601 79.79 84.288 79.738 83.735 79.5 C 83.167 79.28 82.85 79.065 82.56 78.715 C 81.841 77.642 81.646 76.717 81.909 75.392 C 82.151 73.954 82.525 72.678 83.081 71.407 C 83.639 70.113 84.301 68.94 85.111 67.803 C 85.994 66.52 86.914 65.385 87.924 64.332 C 88.922 63.283 90.01 62.377 91.266 61.549 C 93.223 60.288 95.242 59.774 97.561 59.951 C 99.836 60.069 101.757 61.136 103.513 63.206 C 104.301 63.997 104.861 64.783 105.299 65.718 C 105.776 66.721 106.223 67.738 106.667 68.832 C 107.362 70.824 107.935 72.806 108.413 74.878 C 108.891 76.948 109.25 79.007 109.506 81.138 C 109.829 84.089 110.119 86.998 110.377 89.886 C 110.635 92.771 110.866 95.752 111.058 98.704 C 111.25 100.335 111.244 101.984 111.052 103.684 C 111.009 105.369 110.466 106.292 109.157 106.928 C 107.875 107.705 106.714 107.606 105.28 106.626 C 104.726 106.252 104.468 105.943 104.297 105.439 C 104.06 104.843 103.897 104.259 103.78 103.6 C 103.725 103.335 103.709 103.159 103.709 102.938 C 103.709 102.499 103.585 101.933 103.425 101.496 L 103.014 100.371 L 102.172 101.011 Z M 93.471 99.952 L 93.76 101.866 L 94.938 100.591 C 95.975 99.468 96.984 98.361 97.959 97.275 C 98.97 96.139 99.887 94.832 100.634 93.461 C 100.9 92.739 100.921 91.662 100.643 90.868 C 100.327 90.158 99.777 89.492 99.199 89.12 C 98.908 88.917 98.609 88.781 98.33 88.741 C 98 88.693 97.524 88.9 97.238 89.126 C 97.085 89.291 96.952 89.374 96.696 89.472 L 96.32 89.617 L 96.218 89.939 C 96.203 89.986 96.199 89.985 96.119 90.062 C 95.941 90.249 95.747 90.516 95.628 90.738 L 95.678 90.645 C 94.806 91.96 94.113 93.414 93.699 94.848 C 93.265 96.352 93.201 98.164 93.471 99.952 Z M 142.435 100.255 C 142.193 100.686 141.954 101.055 141.684 101.422 C 141.389 101.822 141.068 102.267 140.74 102.73 C 140.304 103.363 139.84 103.957 139.309 104.562 C 138.788 105.156 138.255 105.669 137.64 106.164 C 135.624 107.68 133.819 108.217 131.906 107.879 C 129.92 107.576 128.369 106.911 127.048 105.797 C 125.379 104.37 124.243 102.763 123.535 100.86 C 121.757 96.816 120.759 92.797 120.486 88.576 C 120.195 84.34 120.528 80.158 121.485 75.911 C 121.807 74.064 122.517 72.803 123.753 71.832 C 124.276 71.355 124.758 71.059 125.332 70.866 C 125.813 70.653 126.188 70.707 126.76 71.057 L 126.814 71.09 L 126.872 71.108 C 127.458 71.295 127.727 71.507 127.927 71.975 C 128.197 72.455 128.266 72.816 128.266 73.373 C 128.266 73.968 128.266 74.561 128.266 75.153 C 128.266 75.702 128.241 76.17 128.18 76.648 C 127.917 78.733 127.78 80.879 127.78 82.998 C 127.78 85.117 127.915 87.277 128.176 89.417 C 128.312 90.905 128.532 92.392 128.83 93.847 C 129.145 95.344 129.672 96.872 130.35 98.261 C 130.515 98.582 130.653 98.785 130.811 98.987 C 131.263 99.803 131.797 100.35 132.295 100.61 C 132.846 100.757 133.715 100.588 134.521 100.154 C 136.095 99.167 137.388 97.849 138.311 96.322 C 139.313 95.013 140.124 93.542 140.682 92.006 C 141.214 90.52 141.657 89 141.991 87.513 C 142.585 85.093 142.987 82.595 143.188 80.102 C 143.386 77.629 143.454 75.156 143.388 72.685 C 143.321 70.945 143.871 69.858 145.266 68.932 C 146.39 68.081 147.496 67.942 148.92 68.455 C 150.305 68.833 151.015 69.749 151.354 71.541 C 151.598 72.522 151.724 73.444 151.751 74.453 C 151.784 75.488 151.74 76.485 151.613 77.554 L 151.605 77.621 L 151.603 77.692 C 151.537 81.112 151.473 84.517 151.411 87.906 C 151.346 91.324 151.413 94.815 151.607 98.261 C 151.737 99.864 151.768 101.492 151.702 103.229 C 151.636 105.004 151.571 106.745 151.506 108.457 L 151.506 108.46 C 151.4 109.528 150.942 110.074 149.878 110.499 C 149.376 110.726 149.018 110.7 148.499 110.491 C 147.939 110.264 147.559 110.011 147.186 109.557 C 146.831 109.139 146.589 108.794 146.394 108.422 C 146.195 108.05 146.045 107.663 145.937 107.27 C 145.557 106.174 145.232 105.104 144.944 104.013 C 144.651 102.888 144.342 101.731 144.017 100.543 L 143.446 98.455 L 142.435 100.255 Z M 160.886 93.384 C 160.811 90.224 161.268 87.461 162.302 84.829 C 163.337 82.144 164.695 79.695 166.468 77.323 C 168.18 75.051 170.396 73.472 173.332 72.407 C 174.502 72.088 175.58 71.993 176.749 72.088 C 177.894 72.169 178.901 72.516 179.973 73.188 C 180.448 73.547 180.763 73.86 181.074 74.267 C 181.364 74.619 181.492 74.892 181.578 75.338 C 181.909 76.679 181.684 77.356 180.902 78.177 C 180.088 79.031 179.267 79.298 177.971 78.978 C 177.029 78.706 176.049 78.69 175.27 79.006 C 174.539 79.302 173.737 79.885 173.089 80.532 C 168.817 85.584 167.329 91.56 168.75 97.882 C 169.282 99.979 170.29 101.507 171.477 102.091 C 172.648 102.508 174.305 102.268 176.155 101.382 C 177.482 100.729 178.693 99.689 179.617 98.412 L 179.706 98.289 L 179.75 98.166 C 179.835 97.929 179.881 97.85 180.001 97.748 C 180.193 97.55 180.481 97.251 180.74 96.991 C 181.164 96.352 181.441 96.262 182.113 96.635 C 182.553 96.847 182.757 97.026 182.936 97.288 C 183.093 97.517 183.134 97.559 183.106 97.853 L 183.102 97.893 L 183.111 97.979 C 183.249 99.231 183.079 100.15 182.528 101.118 C 181.946 102.212 181.265 103.196 180.402 104.197 C 179.228 105.397 178.023 106.274 176.624 106.961 C 175.209 107.666 173.741 108.19 172.107 108.574 C 170.765 108.76 169.587 108.69 168.402 108.341 C 167.235 108.022 166.265 107.427 165.314 106.444 C 164.077 105.203 163.204 103.914 162.577 102.404 C 161.921 100.856 161.461 99.305 161.154 97.603 C 161.031 96.914 160.944 96.221 160.882 95.461 C 160.818 94.734 160.817 94.142 160.879 93.554 L 160.888 93.471 L 160.886 93.384 Z M 192.291 91.867 C 192.289 88.901 192.69 86.168 193.542 83.409 C 194.398 80.603 195.505 77.901 196.904 75.19 C 197.587 73.925 198.366 72.771 199.309 71.627 C 200.235 70.491 201.245 69.557 202.426 68.742 C 204.029 67.602 205.591 66.983 207.308 66.809 C 209.136 66.669 210.643 67.053 212.09 67.971 C 213.542 68.893 214.571 70.009 215.329 71.564 C 216.11 73.035 216.301 74.574 215.978 76.475 C 215.923 77.003 215.818 77.506 215.639 78.109 C 215.466 78.702 215.241 79.232 214.945 79.766 C 214.13 81.364 213.195 82.842 212.087 84.283 C 211.008 85.702 209.736 86.9 208.169 87.977 C 207.166 88.679 206.148 89.249 205.049 89.722 C 204.001 90.191 202.916 90.373 201.699 90.303 C 201.161 90.313 200.558 90.558 200.216 90.859 C 200.007 91.262 199.853 91.881 199.83 92.441 C 199.765 93.579 199.84 94.797 200.047 95.937 C 200.249 97.03 200.526 98.161 200.861 99.251 L 200.887 99.338 L 200.919 99.407 C 201.366 100.361 201.981 101.114 202.499 101.404 C 203.075 101.541 203.976 101.315 204.891 100.763 C 206.187 100.06 207.362 99.107 208.386 97.95 C 208.941 97.454 209.463 97.028 210.027 96.613 C 210.617 96.183 211.213 95.729 211.804 95.261 L 211.858 95.218 L 211.889 95.184 C 212.077 94.981 212.337 94.813 212.789 94.586 C 213.572 94.299 214.033 94.323 214.526 94.741 C 215.037 95.021 215.095 95.3 215.095 96.075 C 215.095 96.486 215.072 96.847 215.011 97.259 C 214.954 97.67 214.879 98.023 214.764 98.428 C 213.968 100.811 212.886 102.772 211.392 104.528 C 209.941 106.276 208.038 107.484 205.478 108.293 C 201.981 109.272 199.161 108.501 196.625 105.853 C 195.269 104.494 194.398 103.107 193.878 101.466 C 193.308 99.738 192.888 98.027 192.575 96.189 C 192.513 95.5 192.468 94.83 192.437 94.088 C 192.403 93.317 192.355 92.588 192.291 91.867 Z M 210.476 75.645 C 210.474 75.129 210.434 74.588 210.355 74.156 C 210.237 73.501 209.71 72.909 209.224 72.622 C 208.493 72.345 207.603 72.478 206.74 73.149 C 206.445 73.313 206.154 73.524 205.9 73.773 C 205.706 73.969 205.48 74.2 205.222 74.462 L 205.185 74.499 L 205.153 74.539 C 204.268 75.651 203.493 76.93 202.907 78.251 C 202.349 79.522 201.854 80.75 201.39 82.019 C 201.2 82.399 201.032 82.83 201.074 83.298 C 201.118 83.794 201.475 84.274 201.772 84.565 C 202.088 84.786 202.545 84.938 202.921 84.916 C 203.186 84.873 203.478 84.791 203.678 84.701 C 206.721 82.951 209.03 80.209 210.297 76.805 L 210.305 76.784 L 210.236 76.946 C 210.356 76.662 210.476 76.208 210.476 75.89 C 210.476 75.727 210.476 75.645 210.476 75.645 Z M 257.117 64.628 C 257.266 65.495 257.605 66.311 257.921 66.698 C 258.298 66.88 259.058 66.936 259.881 66.799 C 264.951 65.818 270.046 65.629 275.112 66.219 C 275.391 66.215 275.538 66.231 275.657 66.281 C 275.867 66.35 276.075 66.412 276.32 66.476 C 277.184 66.905 277.489 67.258 277.473 68.029 C 277.624 68.776 277.395 69.195 276.628 69.789 C 276.049 70.33 275.421 70.706 274.609 71.004 C 273.774 71.32 272.963 71.531 272.098 71.656 C 270.081 71.919 268.063 72.217 266.048 72.545 C 264.033 72.875 262.002 73.237 259.934 73.629 C 259.248 73.707 258.625 73.928 258.3 74.176 C 258.01 74.691 257.816 75.61 257.879 76.448 C 258.203 80.459 258.495 84.395 258.756 88.271 C 258.884 90.317 259.031 92.333 259.195 94.315 C 259.356 96.295 259.541 98.372 259.739 100.417 C 259.865 101.325 259.975 102.24 260.071 103.181 C 260.194 104.257 260.509 105.371 261.001 106.398 C 261.204 106.752 261.209 106.905 261.043 107.33 C 260.922 107.829 260.734 108.112 260.316 108.455 C 259.854 108.85 259.45 108.956 258.822 108.956 C 258.183 108.956 257.78 108.852 257.331 108.551 C 256.952 108.163 256.675 107.799 256.39 107.296 C 256.07 106.744 255.789 106.247 255.487 105.697 C 254.929 103.986 254.463 102.309 254.049 100.499 C 253.63 98.674 253.259 96.802 252.938 94.913 C 251.78 89.036 251.013 83.131 250.628 77.127 C 250.37 73.45 250.161 69.799 249.997 66.156 C 249.837 62.507 249.691 58.877 249.561 55.262 C 249.495 53.414 249.414 51.589 249.319 49.805 C 249.222 48.061 249.206 46.297 249.272 44.555 C 249.27 44.246 249.248 43.893 249.212 43.587 C 249.116 43.111 248.855 42.542 248.561 42.204 C 247.844 41.46 247.459 40.841 247.232 40.156 C 247.017 39.51 246.977 39.092 247.181 38.458 C 247.481 37.048 248.423 36.216 250.344 35.584 C 252.138 35.001 253.892 34.555 255.675 34.233 C 258.321 33.905 260.942 33.613 263.564 33.349 C 266.172 33.088 268.84 32.956 271.477 32.957 C 272.938 32.826 274.334 32.826 275.725 32.956 C 277.112 33.08 278.54 33.38 279.929 33.832 C 281.737 34.17 283.113 35.056 284.355 36.721 C 284.907 37.422 285.029 37.891 284.841 38.639 C 284.738 39.225 284.495 39.514 283.895 39.921 C 283.346 40.376 282.955 40.455 282.356 40.202 C 280.273 39.463 278.138 39.18 276.111 39.375 C 274.171 39.571 272.277 39.733 270.404 39.866 C 268.517 39.933 266.62 40.066 264.73 40.264 C 262.856 40.461 260.978 40.626 259.105 40.754 C 258.28 40.828 257.572 41.053 257.236 41.304 C 256.947 41.785 256.71 42.718 256.71 43.668 C 256.71 44.531 256.726 45.907 256.759 47.785 C 256.792 49.662 256.824 51.717 256.857 53.952 C 256.887 56.195 256.935 58.282 257.001 60.197 C 257.066 62.097 257.098 63.487 257.098 64.394 L 257.098 64.516 L 257.117 64.628 Z M 308.053 87.752 C 307.773 93.988 305.556 99.629 301.298 105.073 C 300.569 106.066 299.763 106.867 298.778 107.578 C 297.802 108.299 296.767 108.809 295.538 109.18 C 293.136 109.765 291.002 109.496 288.805 108.363 C 288.014 107.87 287.297 107.302 286.552 106.575 C 285.818 105.866 285.245 105.152 284.767 104.354 C 283.13 101.748 282.078 99.176 281.527 96.434 C 280.956 93.666 280.778 90.925 280.972 87.998 C 281.217 85.388 281.759 82.997 282.641 80.616 C 283.501 78.246 284.725 76.174 286.418 74.213 C 287.793 72.667 289.394 71.775 291.351 71.427 C 292.236 71.175 292.913 71.156 293.579 71.374 C 294.28 71.57 294.882 71.902 295.528 72.448 L 295.527 72.447 L 295.454 72.38 C 295.761 72.663 296.235 72.906 296.62 72.979 C 296.902 73.01 297.315 73.024 297.659 73.024 C 299.309 72.825 300.663 73.065 301.951 73.735 C 303.252 74.411 304.308 75.339 305.269 76.699 C 306.382 78.248 307.077 79.784 307.454 81.534 C 307.862 83.322 308.055 85.335 308.053 87.752 Z M 294.835 79.317 C 294.399 79.549 294.209 79.537 293.931 79.522 C 293.668 79.508 293.34 79.472 292.852 79.547 C 292.106 79.579 291.377 79.854 290.886 80.29 C 290.491 80.708 290.089 81.336 289.789 82.006 C 288.852 84.545 288.313 87.278 288.267 89.838 C 288.241 92.381 288.608 95.051 289.342 97.645 C 289.774 98.79 290.501 100.121 291.382 101.298 L 291.425 101.355 L 291.47 101.4 C 291.983 101.913 292.551 102.328 292.953 102.386 C 293.422 102.455 294.105 102.03 294.642 101.5 C 295.233 100.899 295.819 100.271 296.378 99.635 C 296.97 98.962 297.511 98.183 297.932 97.402 L 297.959 97.35 L 297.985 97.29 C 298.308 96.499 298.647 95.682 299.003 94.83 C 299.381 93.926 299.685 92.983 299.896 92.069 C 300.227 90.79 300.497 89.464 300.697 88.146 C 300.897 86.722 300.82 85.153 300.478 83.707 C 300.1 82.182 299.427 80.914 298.643 80.218 C 297.991 79.685 296.503 78.771 294.835 79.317 Z M 325.539 78.404 C 326.074 77.998 326.55 77.393 326.782 76.854 C 326.902 76.52 327 76.282 327.11 76.058 C 327.666 74.99 328.29 74.011 329.042 73.03 C 329.757 72.078 330.575 71.353 331.608 70.745 C 333.03 69.859 334.347 69.37 335.718 69.225 C 337.049 69.053 338.33 69.401 339.711 70.276 C 340.699 70.778 341.314 71.429 341.766 72.468 C 342.261 73.453 342.344 74.285 342.096 75.23 C 341.994 76.234 341.758 76.632 341.109 76.849 C 340.472 77.213 339.832 77.09 338.873 76.484 C 338.224 76.125 337.554 75.891 337.048 75.891 C 336.47 75.891 335.73 76.335 335.118 76.935 C 334.816 77.253 334.493 77.688 334.232 78.134 C 334.025 78.496 333.826 78.79 333.59 79.087 L 333.501 79.2 L 333.439 79.344 C 332.972 80.426 332.561 81.523 332.226 82.575 C 331.9 83.598 331.566 84.667 331.241 85.723 C 330.655 87.777 330.113 89.863 329.624 91.953 C 329.131 94.053 328.705 96.272 328.376 98.403 C 328.249 99.718 328.119 101.031 327.989 102.348 C 327.855 103.699 327.785 105.087 327.785 106.437 C 327.785 106.879 327.772 107.325 327.743 107.831 C 327.726 108.251 327.635 108.63 327.465 109.063 C 327.212 109.902 326.893 110.342 326.357 110.74 C 325.808 111.148 325.141 111.342 324.238 111.327 C 322.45 111.575 321.409 111.018 320.697 109.392 C 320.474 108.956 320.355 108.581 320.283 108.085 C 320.179 107.456 320.061 106.917 319.928 106.433 C 319.484 103.708 319.108 101.041 318.785 98.329 C 318.461 95.597 318.138 92.859 317.814 90.099 C 317.555 87.433 317.397 84.746 317.336 81.977 C 317.271 79.196 317.271 76.384 317.336 73.573 C 317.266 72.036 317.696 71.196 318.875 70.541 C 319.879 69.873 320.743 69.794 321.803 70.263 C 322.872 70.639 323.424 71.285 323.69 72.374 C 324.05 73.315 324.189 74.062 324.191 74.941 C 324.133 75.348 324.112 75.773 324.147 76.26 C 324.176 76.622 324.191 76.989 324.19 77.421 L 324.187 79.433 L 325.539 78.404 Z M 364.659 94.046 C 364.406 94.628 364.143 95.194 363.858 95.774 C 363.573 96.354 363.278 96.921 362.96 97.5 L 362.925 97.563 L 362.9 97.626 C 362.603 98.36 362.23 99.052 361.738 99.793 C 361.26 100.531 360.753 101.131 360.148 101.676 C 358.658 103.107 357.155 103.721 355.36 103.628 C 353.573 103.604 352.129 102.843 350.768 101.237 C 349.986 100.395 349.431 99.505 348.989 98.381 C 348.519 97.199 348.139 96.041 347.827 94.832 C 346.359 89.324 346.633 84.107 348.664 78.784 C 349.285 77.071 350.054 75.51 351.029 73.99 C 351.967 72.493 353.144 71.285 354.697 70.227 C 356.246 69.147 357.745 68.503 359.348 68.232 C 360.93 67.939 362.481 68.131 364.203 68.832 L 364.249 68.851 L 364.3 68.864 C 364.831 68.997 365.33 69.101 365.772 69.17 C 366.33 69.233 366.965 69.097 367.514 68.812 C 368.623 68.331 369.548 68.416 370.65 69.12 C 371.775 69.744 372.304 70.486 372.459 71.619 C 372.84 73.276 373.083 74.885 373.205 76.543 C 373.335 78.241 373.432 79.946 373.497 81.644 C 373.69 85.315 373.818 88.992 373.883 92.695 C 373.949 96.394 373.916 100.058 373.786 103.724 C 373.721 105.48 373.611 107.233 373.451 109.025 C 373.3 110.753 372.943 112.443 372.379 114.148 C 371.822 116.115 371.089 117.866 370.118 119.542 C 369.159 121.215 368.019 122.645 366.58 123.973 C 365.5 124.963 364.362 125.556 362.967 125.851 C 361.245 126.249 359.744 125.887 358.166 124.7 C 356.572 123.583 355.776 122.462 355.544 120.796 C 355.479 120.361 355.513 120.208 355.621 119.949 C 355.729 119.691 355.806 119.574 356.121 119.4 C 356.369 119.243 356.6 119.164 356.957 119.115 C 357.241 119.043 357.472 119.115 357.817 119.335 C 358.166 119.51 358.4 119.664 358.61 119.854 C 358.836 120.052 359.034 120.266 359.263 120.561 L 359.347 120.67 L 359.426 120.726 C 359.85 121.027 360.444 121.238 360.899 121.162 C 361.341 121.087 361.87 120.726 362.255 120.316 L 362.291 120.277 L 362.333 120.216 C 363.617 118.345 364.553 116.252 365.049 114.156 C 365.77 111.002 366.209 107.698 366.346 104.376 C 366.476 101.09 366.476 97.792 366.346 94.536 L 366.185 90.539 L 364.659 94.046 Z M 355.984 95.524 L 356.487 96.143 L 357.083 95.649 C 357.8 95.056 358.436 94.28 358.859 93.489 C 359.223 92.783 359.609 91.985 360.005 91.118 C 360.794 89.106 361.509 86.91 362.074 84.732 C 362.633 82.559 363.085 80.295 363.415 78.019 C 363.469 77.545 363.475 76.966 363.394 76.578 C 363.303 76.141 363.009 75.596 362.716 75.346 C 362.208 74.912 361.294 74.89 360.459 75.14 C 359.596 75.442 358.741 75.978 358.076 76.636 C 357.527 77.269 356.998 78 356.638 78.65 C 356.303 79.265 355.957 79.967 355.623 80.709 C 354.943 82.462 354.517 84.453 354.437 86.35 C 354.371 88.18 354.439 90.061 354.636 91.887 L 354.646 91.981 L 354.669 92.073 C 354.797 92.586 354.904 93.064 354.998 93.54 C 355.152 94.207 355.523 94.956 355.984 95.524 Z M 383.068 91.87 C 383.066 88.902 383.468 86.167 384.319 83.407 C 385.173 80.602 386.278 77.902 387.68 75.19 C 388.364 73.926 389.144 72.771 390.086 71.627 C 391.012 70.491 392.022 69.555 393.204 68.742 C 394.805 67.602 396.367 66.983 398.08 66.809 C 399.908 66.669 401.415 67.053 402.862 67.972 C 404.315 68.894 405.344 70.007 406.105 71.562 C 406.884 73.034 407.072 74.572 406.75 76.475 C 406.695 77.003 406.589 77.508 406.41 78.112 C 406.239 78.705 406.018 79.232 405.722 79.764 C 404.904 81.363 403.97 82.839 402.865 84.282 C 401.783 85.701 400.509 86.9 398.941 87.977 C 397.938 88.68 396.923 89.249 395.827 89.722 C 394.776 90.191 393.688 90.373 392.471 90.303 C 391.937 90.312 391.329 90.563 390.988 90.858 C 390.779 91.261 390.611 91.862 390.602 92.441 C 390.54 93.577 390.615 94.799 390.82 95.937 C 391.021 97.03 391.298 98.161 391.633 99.251 L 391.659 99.338 L 391.691 99.407 C 392.138 100.361 392.754 101.114 393.271 101.405 C 393.847 101.541 394.748 101.315 395.666 100.763 C 396.964 100.06 398.14 99.106 399.165 97.949 C 399.73 97.438 400.236 97.026 400.799 96.613 C 401.388 96.183 401.986 95.731 402.578 95.263 L 402.632 95.219 L 402.665 95.185 C 402.855 94.981 403.114 94.812 403.562 94.586 C 404.345 94.299 404.806 94.323 405.298 94.741 C 405.809 95.021 405.867 95.3 405.867 96.075 C 405.867 96.486 405.844 96.846 405.783 97.258 C 405.726 97.672 405.651 98.026 405.54 98.43 C 404.741 100.812 403.658 102.772 402.164 104.528 C 400.714 106.276 398.81 107.484 396.25 108.293 C 392.757 109.272 389.935 108.501 387.397 105.851 C 386.041 104.494 385.171 103.109 384.65 101.466 C 384.08 99.738 383.66 98.027 383.347 96.189 C 383.285 95.5 383.24 94.83 383.21 94.088 C 383.176 93.318 383.129 92.59 383.068 91.87 Z M 401.248 75.645 C 401.246 75.129 401.203 74.599 401.129 74.169 C 400.947 73.527 400.487 72.909 399.998 72.621 C 399.266 72.344 398.375 72.478 397.512 73.15 C 397.215 73.315 396.924 73.527 396.672 73.777 C 396.475 73.975 396.254 74.197 395.994 74.461 L 395.956 74.499 L 395.924 74.54 C 395.042 75.652 394.268 76.929 393.68 78.248 C 393.122 79.52 392.62 80.77 392.163 82.019 C 391.972 82.399 391.804 82.83 391.846 83.298 C 391.89 83.794 392.253 84.283 392.552 84.573 C 392.867 84.79 393.321 84.938 393.695 84.915 C 393.96 84.873 394.25 84.791 394.45 84.701 C 397.493 82.951 399.802 80.209 401.069 76.805 L 401.077 76.784 L 401.008 76.946 C 401.128 76.662 401.248 76.208 401.248 75.89 C 401.248 75.727 401.248 75.645 401.248 75.645 Z" style="fill-rule: nonzero; stroke-opacity: 0.8; stroke-linecap: square; fill-opacity: 0.82; stroke-miterlimit: 1; vector-effect: non-scaling-stroke; stroke-width: 50px; fill: url('#color-1-0'); paint-order: markers stroke;"/>
</svg>